<svg width="48" height="48" viewBox="0 0 48 48" fill="none" xmlns="http://www.w3.org/2000/svg">
<g clip-path="url(#clip0_0_3)">
<rect width="48" height="48" fill="#D4D7E6"/>
<path d="M11.4233 33.772L0 41.6125V48H48V32L42.637 26.6945C40.392 24.6278 36.92 24.6253 34.6721 26.6888L26.7656 33.9467C24.5262 36.0025 21.0916 36.0786 18.7617 34.1241C16.6772 32.3754 13.6684 32.2311 11.4233 33.772Z" fill="#B6BAD3"/>
<path d="M21.7143 14.8571C21.7143 18.013 19.1559 20.5714 16 20.5714C12.8441 20.5714 10.2857 18.013 10.2857 14.8571C10.2857 11.7012 12.8441 9.14284 16 9.14284C19.1559 9.14284 21.7143 11.7012 21.7143 14.8571Z" fill="#B6BAD3"/>
</g>
<defs>
<clipPath id="clip0_0_3">
<rect width="48" height="48" rx="16.224" fill="white"/>
</clipPath>
</defs>
</svg>
